<?xml version="1.0" encoding="UTF-8"?>
<svg xmlns="http://www.w3.org/2000/svg" version="1.1" viewBox="0 0 1510.2 827.9">
  <!-- Generator: Adobe Illustrator 28.7.1, SVG Export Plug-In . SVG Version: 1.2.0 Build 142)  -->
  <g>
    <g id="Layer_1">
      <g id="Layer_2">
        <g>
          <path d="M386.6,228v24.1c0,69.5-21.1,113.9-68.1,136.1,56.6,22.2,78.7,73.3,78.7,144.8v55c0,104.2-54.7,160.2-160.3,160.2H70.8V72.6h159.3c109.4,0,156.5,51.2,156.5,155.4ZM176.4,169.1v178.5h41.3c39.4,0,63.3-17.4,63.3-71.4v-37.6c0-48.3-16.3-69.5-53.8-69.5h-50.9.1ZM176.4,444.2v207.5h60.5c35.5,0,54.7-16.4,54.7-66.6v-58.9c0-62.7-20.2-82-68.1-82h-47.1Z"/>
          <path d="M460.5,72.6h105.6v579.1h173.7v96.5h-279.3V72.6Z"/>
          <path d="M707.2,72.6h326.3v96.5h-110.4v579.1h-105.6V169.1h-110.4v-96.5h.1Z"/>
          <path d="M1431.8,72.6l-110.4,328.1,118.1,347.4h-111.3l-86.4-267.3-87.3,267.3h-98.9l118.1-347.4-110.4-328.1h109.4l79.7,249,81.6-249h97.9,0Z"/>
        </g>
      </g>
    </g>
  </g>
</svg>