<?xml version="1.0" encoding="UTF-8"?>
<svg xmlns="http://www.w3.org/2000/svg" version="1.1" viewBox="0 0 1510.2 827.9">
  <defs>
    <style>
      .cls-1 {
        fill: #231f20;
      }

      .cls-2 {
        opacity: .9;
      }
    </style>
  </defs>
  <!-- Generator: Adobe Illustrator 28.7.1, SVG Export Plug-In . SVG Version: 1.2.0 Build 142)  -->
  <g>
    <g id="Layer_2">
      <g class="cls-2">
        <path class="cls-1" d="M230.1,77.6c53.2,0,91.1,12.1,115.7,37.1,24.1,24.4,35.8,61.5,35.8,113.3v24.1c0,68.7-20.7,110.5-65.3,131.6l-10.5,4.9,10.8,4.2c26.5,10.4,45.5,27.3,58,51.6,11.8,23,17.6,51.9,17.6,88.6v55c0,50.7-13.2,89.6-39.1,115.7-26.1,26.2-65.2,39.5-116.2,39.5H75.8V77.6h154.3M171.4,352.7h46.3c46.6,0,68.3-24.3,68.3-76.4v-37.6c0-25.5-4.5-43.8-13.9-55.9-9.7-12.5-24.3-18.6-44.9-18.6h-55.9v188.5M171.4,656.7h65.5c41.3,0,59.7-22.1,59.7-71.6v-58.9c0-32.7-5.5-54.3-17.3-67.8-11.6-13.3-28.8-19.2-55.8-19.2h-52v217.5M230.1,72.6H70.8v675.6h166.1c105.6,0,160.3-56,160.3-160.2v-55c0-71.4-22.1-122.6-78.7-144.8,47-22.2,68.1-66.6,68.1-136.1v-24.1c0-104.2-47-155.4-156.5-155.4h0ZM176.4,347.7v-178.5h50.9c37.4,0,53.8,21.2,53.8,69.5v37.6c0,54-24,71.4-63.3,71.4h-41.3ZM176.4,651.7v-207.5h47c48,0,68.1,19.3,68.1,82v58.9c0,50.2-19.2,66.6-54.7,66.6h-60.5Z"/>
        <path class="cls-1" d="M561.1,77.6v579.1h173.7v86.5h-269.3V77.6h95.6M566.1,72.6h-105.6v675.6h279.3v-96.5h-173.7V72.6h0Z"/>
        <path class="cls-1" d="M1028.5,77.6v86.5h-110.4v579.1h-95.6V164.1h-110.4v-86.5h316.3M1033.5,72.6h-326.3v96.5h110.4v579.1h105.6V169.1h110.4v-96.5h0Z"/>
        <path class="cls-1" d="M1424.9,77.6l-108.2,321.5-.5,1.6.5,1.6,115.8,340.8h-100.7l-85.3-263.9-4.7-14.6-4.8,14.6-86.2,263.9h-88.3l115.8-340.8.5-1.6-.5-1.6-108.2-321.5h98.8l78.6,245.5,4.7,14.7,4.8-14.7,80.5-245.6h87.3M1431.8,72.6h-97.9l-81.6,249-79.7-249h-109.4l110.4,328.1-118.1,347.4h98.9l87.3-267.3,86.4,267.3h111.3l-118.1-347.4,110.4-328.1h0Z"/>
      </g>
    </g>
  </g>
</svg>